<svg width="98" height="27" viewBox="0 0 98 27" fill="none" xmlns="http://www.w3.org/2000/svg">
<path d="M2.048 18.392V3.608L0.248 3.416V1.808H7.136V3.416L5.072 3.632L5.048 18.464L10.544 18.128L12.176 15.32L13.496 15.896L12.704 20H0.2V18.752L2.048 18.392ZM18.2096 0.343998C18.8016 0.343998 19.2496 0.503999 19.5536 0.823999C19.8736 1.128 20.0336 1.544 20.0336 2.072C20.0336 2.664 19.8176 3.152 19.3856 3.536C18.9536 3.92 18.4496 4.112 17.8736 4.112C17.3776 4.112 16.9456 3.952 16.5776 3.632C16.2256 3.312 16.0496 2.896 16.0496 2.384C16.0496 1.824 16.2736 1.344 16.7216 0.943999C17.1696 0.543999 17.6656 0.343998 18.2096 0.343998ZM19.7696 6.848V18.512L21.5936 18.776V20H15.0416V18.776L16.8896 18.512V9.752L15.3056 8.6V7.736L19.0736 6.608L19.7696 6.848ZM27.7596 6.896H31.6956V8.6H27.8316V13.952C27.8316 15.184 27.8556 16.088 27.9036 16.664C27.9676 17.24 28.0876 17.672 28.2636 17.96C28.4556 18.232 28.7676 18.368 29.1996 18.368C29.5356 18.368 29.9436 18.312 30.4236 18.2C30.9196 18.088 31.2636 17.968 31.4556 17.84L31.9356 18.992C31.5356 19.392 30.9356 19.712 30.1356 19.952C29.3516 20.176 28.5996 20.288 27.8796 20.288C26.8556 20.288 26.1116 19.992 25.6476 19.4C25.1836 18.808 24.9516 17.872 24.9516 16.592V8.6H23.1756V7.568C23.9276 7.376 24.4236 7.232 24.6636 7.136C24.9196 7.024 25.1436 6.816 25.3356 6.512C25.5756 6.096 25.9036 5.176 26.3196 3.752H27.7596V6.896ZM37.019 0.343998C37.611 0.343998 38.059 0.503999 38.363 0.823999C38.683 1.128 38.843 1.544 38.843 2.072C38.843 2.664 38.627 3.152 38.195 3.536C37.763 3.92 37.259 4.112 36.683 4.112C36.187 4.112 35.755 3.952 35.387 3.632C35.035 3.312 34.859 2.896 34.859 2.384C34.859 1.824 35.083 1.344 35.531 0.943999C35.979 0.543999 36.475 0.343998 37.019 0.343998ZM38.579 6.848V18.512L40.403 18.776V20H33.851V18.776L35.699 18.512V9.752L34.115 8.6V7.736L37.883 6.608L38.579 6.848ZM48.249 6.44C49.737 6.44 50.929 6.768 51.825 7.424C52.145 6.912 52.857 6.656 53.961 6.656H55.233V8.816H52.905C53.177 9.36 53.313 10.008 53.313 10.76C53.313 11.768 53.065 12.632 52.569 13.352C52.073 14.072 51.409 14.616 50.577 14.984C49.745 15.336 48.817 15.512 47.793 15.512C46.961 15.512 46.185 15.4 45.465 15.176C45.369 15.432 45.321 15.696 45.321 15.968C45.321 16.24 45.321 16.392 45.321 16.424C45.321 16.872 45.441 17.208 45.681 17.432C45.937 17.656 46.337 17.776 46.881 17.792C47.409 17.824 48.385 17.84 49.809 17.84C51.729 17.84 53.041 18.168 53.745 18.824C54.449 19.48 54.801 20.4 54.801 21.584C54.801 22.544 54.513 23.368 53.937 24.056C53.361 24.76 52.561 25.296 51.537 25.664C50.529 26.032 49.369 26.216 48.057 26.216C46.377 26.216 44.993 25.944 43.905 25.4C42.817 24.856 42.273 23.968 42.273 22.736C42.273 22.08 42.465 21.464 42.849 20.888C43.249 20.328 43.721 19.888 44.265 19.568C43.849 19.424 43.545 19.248 43.353 19.04C43.161 18.816 43.041 18.592 42.993 18.368C42.961 18.128 42.945 17.824 42.945 17.456C42.945 17.12 43.089 16.68 43.377 16.136C43.665 15.576 44.017 15.112 44.433 14.744C43.089 13.976 42.417 12.784 42.417 11.168C42.417 10.128 42.689 9.256 43.233 8.552C43.777 7.848 44.489 7.32 45.369 6.968C46.249 6.616 47.209 6.44 48.249 6.44ZM47.793 7.808C47.041 7.808 46.441 8.032 45.993 8.48C45.545 8.928 45.321 9.616 45.321 10.544C45.321 11.584 45.545 12.424 45.993 13.064C46.441 13.704 47.145 14.024 48.105 14.024C48.953 14.024 49.561 13.768 49.929 13.256C50.297 12.744 50.481 11.992 50.481 11C50.481 8.872 49.585 7.808 47.793 7.808ZM45.513 19.856C45.145 20.384 44.961 21.048 44.961 21.848C44.961 22.808 45.297 23.52 45.969 23.984C46.641 24.464 47.497 24.704 48.537 24.704C49.753 24.704 50.673 24.512 51.297 24.128C51.937 23.744 52.257 23.136 52.257 22.304C52.257 21.744 52.169 21.296 51.993 20.96C51.817 20.624 51.505 20.376 51.057 20.216C50.609 20.056 49.969 19.976 49.137 19.976L47.457 19.952C46.625 19.952 45.977 19.92 45.513 19.856ZM62.4036 6.608C63.9556 6.608 65.1556 6.952 66.0036 7.64C66.8516 8.328 67.2756 9.48 67.2756 11.096V18.776H68.7636V19.736C68.4756 19.912 68.0996 20.048 67.6356 20.144C67.1716 20.256 66.7156 20.312 66.2676 20.312C65.6916 20.312 65.2756 20.2 65.0196 19.976C64.7636 19.736 64.6276 19.352 64.6116 18.824C63.7316 19.816 62.4916 20.312 60.8916 20.312C60.0756 20.312 59.3476 20.16 58.7076 19.856C58.0676 19.536 57.5716 19.096 57.2196 18.536C56.8676 17.976 56.6916 17.344 56.6916 16.64C56.6916 15.584 57.0836 14.712 57.8676 14.024C58.6516 13.336 59.6276 12.84 60.7956 12.536C61.9636 12.216 63.1396 12.056 64.3236 12.056V11.336C64.3236 10.248 64.0756 9.488 63.5796 9.056C63.0836 8.624 62.3476 8.408 61.3716 8.408C60.8436 8.408 60.2436 8.496 59.5716 8.672C58.8996 8.848 58.3156 9.072 57.8196 9.344L57.2676 8.024C57.8116 7.576 58.5876 7.232 59.5956 6.992C60.6196 6.736 61.5556 6.608 62.4036 6.608ZM64.3236 13.496C63.1236 13.496 62.0436 13.712 61.0836 14.144C60.1396 14.576 59.6676 15.264 59.6676 16.208C59.6676 17.76 60.4916 18.536 62.1396 18.536C62.5236 18.536 62.9156 18.456 63.3156 18.296C63.7316 18.136 64.0596 17.944 64.2996 17.72L64.3236 13.496ZM82.3574 1.232V18.776H83.9654V19.808C83.6774 19.968 83.2694 20.104 82.7414 20.216C82.2134 20.328 81.6694 20.384 81.1094 20.384C80.5974 20.384 80.2294 20.288 80.0054 20.096C79.7814 19.904 79.6374 19.568 79.5734 19.088C79.2214 19.408 78.6934 19.696 77.9894 19.952C77.3014 20.192 76.5414 20.312 75.7094 20.312C74.7334 20.312 73.8454 20.048 73.0454 19.52C72.2454 18.992 71.6054 18.232 71.1254 17.24C70.6614 16.232 70.4294 15.04 70.4294 13.664C70.4294 12.288 70.7414 11.056 71.3654 9.968C72.0054 8.88 72.8614 8.032 73.9334 7.424C75.0214 6.8 76.2134 6.488 77.5094 6.488C78.2294 6.488 78.8614 6.568 79.4054 6.728V3.224L76.8614 2.72V1.448L81.7334 0.943999L82.3574 1.232ZM77.1974 7.88C76.5574 7.88 75.9494 8.08 75.3734 8.48C74.7974 8.88 74.3254 9.472 73.9574 10.256C73.6054 11.04 73.4294 11.992 73.4294 13.112C73.4294 14.2 73.5814 15.16 73.8854 15.992C74.1894 16.824 74.6054 17.464 75.1334 17.912C75.6774 18.36 76.2854 18.584 76.9574 18.584C77.4374 18.584 77.8934 18.52 78.3254 18.392C78.7734 18.264 79.1414 18.08 79.4294 17.84V8.624C78.8694 8.128 78.1254 7.88 77.1974 7.88ZM92.6256 6.488C94.1616 6.488 95.3536 6.944 96.2016 7.856C97.0656 8.768 97.4976 10.048 97.4976 11.696C97.4976 12.4 97.4416 13.064 97.3296 13.688H88.8576C88.8896 15.176 89.2656 16.336 89.9856 17.168C90.7216 18 91.7616 18.416 93.1056 18.416C93.6976 18.416 94.3296 18.352 95.0016 18.224C95.6736 18.08 96.2176 17.904 96.6336 17.696L97.1376 18.848C96.6256 19.296 95.8816 19.656 94.9056 19.928C93.9296 20.184 92.9616 20.312 92.0016 20.312C90.0496 20.296 88.5376 19.688 87.4656 18.488C86.3936 17.288 85.8576 15.656 85.8576 13.592C85.8576 12.232 86.1456 11.016 86.7216 9.944C87.2976 8.856 88.0976 8.008 89.1216 7.4C90.1456 6.792 91.3136 6.488 92.6256 6.488ZM92.0736 7.904C91.1936 7.904 90.4656 8.264 89.8896 8.984C89.3296 9.704 88.9936 10.744 88.8816 12.104H94.4976C94.5136 11.928 94.5216 11.664 94.5216 11.312C94.5216 10.128 94.2656 9.296 93.7536 8.816C93.4336 8.208 92.8736 7.904 92.0736 7.904Z" fill="#252B42"/>
</svg>
